# CITY-04 generated projection: arroyo_water
v 16.000000 -0.975239 -4.400000
v 20.000000 -1.088191 0.000000
v 16.000000 -0.907855 0.000000
f 3 2 1
v 20.000000 -1.088191 0.000000
v 16.000000 -0.975239 -4.400000
v 20.000000 -1.218608 -8.000000
f 6 5 4
v 20.000000 -1.020507 4.000000
v 16.000000 -0.806813 6.285714
v 16.000000 -0.907855 0.000000
f 9 8 7
v 16.000000 -0.907855 0.000000
v 20.000000 -1.088191 0.000000
v 20.000000 -1.020507 4.000000
f 12 11 10
v 16.000000 -0.975239 -4.400000
v 16.000000 -0.907855 0.000000
v 11.111111 -0.680922 0.000000
f 15 14 13
v 11.111111 -0.680922 0.000000
v 16.000000 -0.907855 0.000000
v 16.000000 -0.806813 6.285714
f 18 17 16
v 8.000000 -0.496039 2.800000
v 13.000000 -0.646697 8.000000
v 8.000000 -0.423355 8.000000
f 21 20 19
v 13.000000 -0.646697 8.000000
v 8.000000 -0.496039 2.800000
v 11.111111 -0.680922 0.000000
f 24 23 22
v 13.000000 -0.646697 8.000000
v 11.111111 -0.680922 0.000000
v 16.000000 -0.806813 6.285714
f 27 26 25
v 8.000000 -0.380652 10.857143
v 8.000000 -0.423355 8.000000
v 13.000000 -0.646697 8.000000
f 30 29 28
v 8.000000 -0.496039 2.800000
v 8.000000 -0.423355 8.000000
v 2.222222 -0.158594 8.000000
f 33 32 31
v 2.222222 -0.158594 8.000000
v 8.000000 -0.423355 8.000000
v 8.000000 -0.380652 10.857143
f 36 35 34
v 8.000000 -0.380652 10.857143
v -0.000000 0.041120 15.428571
v -0.000000 -0.030943 10.000000
f 39 38 37
v -0.000000 -0.030943 10.000000
v 2.222222 -0.158594 8.000000
v 8.000000 -0.380652 10.857143
f 42 41 40
v -0.000000 -0.030943 10.000000
v -0.000000 0.041120 15.428571
v -1.000000 0.093387 16.000000
f 45 44 43
v -1.000000 0.093387 16.000000
v -6.666667 0.345409 16.000000
v -0.000000 -0.030943 10.000000
f 48 47 46
v -6.666667 0.345409 16.000000
v -1.000000 0.093387 16.000000
v -8.000000 0.455879 20.000000
f 51 50 49
v -8.000000 0.455879 20.000000
v -8.000000 0.419650 17.200000
v -6.666667 0.345409 16.000000
f 54 53 52
v -8.000000 0.419650 17.200000
v -8.000000 0.455879 20.000000
v -12.400000 0.700952 24.000000
f 57 56 55
v -12.400000 0.700952 24.000000
v -15.555556 0.836080 24.000000
v -8.000000 0.419650 17.200000
f 60 59 58
v -15.555556 0.836080 24.000000
v -12.400000 0.700952 24.000000
v -16.000000 0.900578 27.272727
f 63 62 61
v -16.000000 0.900578 27.272727
v -16.000000 0.860431 24.400000
v -15.555556 0.836080 24.000000
f 66 65 64
v -20.000000 1.079380 28.000000
v -16.000000 0.860431 24.400000
v -16.000000 0.900578 27.272727
f 69 68 67
v -20.000000 1.079380 28.000000
v -21.200000 1.188744 32.000000
v -24.000000 1.304576 32.000000
f 72 71 70
v -21.200000 1.188744 32.000000
v -20.000000 1.079380 28.000000
v -16.000000 0.900578 27.272727
f 75 74 73
v -24.000000 1.344278 34.545455
v -24.000000 1.304576 32.000000
v -21.200000 1.188744 32.000000
f 78 77 76
v -24.000000 1.304576 32.000000
v -24.000000 1.344278 34.545455
v -30.000000 1.679359 40.000000
f 81 80 79
v -30.000000 1.679359 40.000000
v -32.000000 1.760354 40.000000
v -24.000000 1.304576 32.000000
f 84 83 82
v -32.000000 1.794907 42.000000
v -32.000000 1.760354 40.000000
v -30.000000 1.679359 40.000000
f 87 86 85
v -32.000000 1.760354 40.000000
v -32.000000 1.794907 42.000000
v -38.000000 2.144418 48.000000
f 90 89 88
v -38.000000 2.144418 48.000000
v -40.000000 2.224644 48.000000
v -32.000000 1.760354 40.000000
f 93 92 91
v -40.000000 2.261805 50.000000
v -40.000000 2.224644 48.000000
v -38.000000 2.144418 48.000000
f 96 95 94
v -40.000000 2.224644 48.000000
v -40.000000 2.261805 50.000000
v -46.000000 2.616142 56.000000
f 99 98 97
v -46.000000 2.616142 56.000000
v -48.000000 2.696128 56.000000
v -40.000000 2.224644 48.000000
f 102 101 100
v -48.000000 2.734853 58.000000
v -48.000000 2.696128 56.000000
v -46.000000 2.616142 56.000000
f 105 104 103
v -48.000000 2.696128 56.000000
v -48.000000 2.734853 58.000000
v -50.000000 2.853801 60.000000
f 108 107 106
v -50.000000 2.853801 60.000000
v -53.076923 3.055364 64.000000
v -56.000000 3.172225 64.000000
f 111 110 109
v -56.000000 3.172225 64.000000
v -48.000000 2.696128 56.000000
v -50.000000 2.853801 60.000000
f 114 113 112
v -56.000000 3.247375 67.800000
v -56.000000 3.172225 64.000000
v -53.076923 3.055364 64.000000
f 117 116 115
v -60.000000 3.411271 68.000000
v -56.000000 3.172225 64.000000
v -56.000000 3.247375 67.800000
f 120 119 118
v -60.000000 3.411271 68.000000
v -59.230769 3.459992 72.000000
v -63.272727 3.621620 72.000000
f 123 122 121
v -59.230769 3.459992 72.000000
v -60.000000 3.411271 68.000000
v -56.000000 3.247375 67.800000
f 126 125 124
v -64.000000 3.668400 72.888889
v -59.230769 3.459992 72.000000
v -64.000000 3.774300 78.200000
f 129 128 127
v -59.230769 3.459992 72.000000
v -64.000000 3.668400 72.888889
v -63.272727 3.621620 72.000000
f 132 131 130
v -69.818182 4.042931 80.000000
v -64.000000 3.774300 78.200000
v -65.384615 3.865611 80.000000
f 135 134 133
v -64.000000 3.774300 78.200000
v -69.818182 4.042931 80.000000
v -64.000000 3.668400 72.888889
f 138 137 136
v -69.818182 4.042931 80.000000
v -65.384615 3.865611 80.000000
v -70.000000 4.170084 86.000000
f 141 140 139
v -70.000000 4.170084 86.000000
v -71.200000 4.258061 88.000000
v -72.000000 4.290059 88.000000
f 144 143 142
v -70.000000 4.170084 86.000000
v -72.000000 4.183464 82.666667
v -69.818182 4.042931 80.000000
f 147 146 145
v -72.000000 4.183464 82.666667
v -70.000000 4.170084 86.000000
v -72.000000 4.290059 88.000000
f 150 149 148
v -72.000000 4.316715 89.333333
v -72.000000 4.290059 88.000000
v -71.200000 4.258061 88.000000
f 153 152 151
v -72.000000 4.183464 82.666667
v -72.000000 4.290059 88.000000
v -76.363636 4.464597 88.000000
f 156 155 154
v -72.000000 4.316715 89.333333
v -76.363636 4.464597 88.000000
v -72.000000 4.290059 88.000000
f 159 158 157
v -78.000000 4.570036 90.000000
v -76.000000 4.610015 96.000000
v -80.000000 4.734017 94.200000
f 162 161 160
v -76.000000 4.610015 96.000000
v -80.000000 4.770013 96.000000
v -80.000000 4.734017 94.200000
f 165 164 163
v -76.363636 4.464597 88.000000
v -72.000000 4.316715 89.333333
v -78.000000 4.570036 90.000000
f 168 167 166
v -76.000000 4.610015 96.000000
v -78.000000 4.570036 90.000000
v -72.000000 4.316715 89.333333
f 171 170 169
v -80.000000 4.903338 102.666667
v -80.000000 4.770013 96.000000
v -76.000000 4.610015 96.000000
f 174 173 172
v -80.000000 4.734017 94.200000
v -80.000000 4.770013 96.000000
v -80.857143 4.804298 96.000000
f 177 176 175
v -80.857143 4.804298 96.000000
v -80.000000 4.770013 96.000000
v -80.000000 4.903338 102.666667
f 180 179 178
v -80.000000 4.903338 102.666667
v -80.800000 4.962003 104.000000
v -84.666667 5.116670 104.000000
f 183 182 181
v -84.666667 5.116670 104.000000
v -80.857143 4.804298 96.000000
v -80.000000 4.903338 102.666667
f 186 185 184
v -84.666667 5.116670 104.000000
v -80.800000 4.962003 104.000000
v -82.000000 5.050002 106.000000
f 189 188 187
v -88.000000 5.390001 111.000000
v -86.000000 5.330001 112.000000
v -88.000000 5.410001 112.000000
f 192 191 190
v -82.000000 5.050002 106.000000
v -88.000000 5.390001 111.000000
v -84.666667 5.116670 104.000000
f 195 194 193
v -88.000000 5.390001 111.000000
v -82.000000 5.050002 106.000000
v -86.000000 5.330001 112.000000
f 198 197 196
v -88.000000 5.470000 115.000000
v -88.000000 5.410001 112.000000
v -86.000000 5.330001 112.000000
f 201 200 199
v -88.000000 5.390001 111.000000
v -88.000000 5.410001 112.000000
v -88.952381 5.448096 112.000000
f 204 203 202
v -88.952381 5.448096 112.000000
v -88.000000 5.410001 112.000000
v -88.000000 5.470000 115.000000
f 207 206 205
v -96.000000 5.878000 119.400000
v -90.000000 5.610000 118.000000
v -91.500000 5.710000 120.000000
f 210 209 208
v -91.500000 5.710000 120.000000
v -96.000000 5.890000 120.000000
v -96.000000 5.878000 119.400000
f 213 212 211
v -90.000000 5.610000 118.000000
v -88.952381 5.448096 112.000000
v -88.000000 5.470000 115.000000
f 216 215 214
v -88.952381 5.448096 112.000000
v -90.000000 5.610000 118.000000
v -96.000000 5.878000 119.400000
f 219 218 217
v -96.000000 6.010000 126.000000
v -96.000000 5.890000 120.000000
v -91.500000 5.710000 120.000000
f 222 221 220
v -96.000000 5.878000 119.400000
v -96.000000 5.890000 120.000000
v -96.571429 5.912857 120.000000
f 225 224 223
v -96.571429 5.912857 120.000000
v -96.000000 5.890000 120.000000
v -96.000000 6.010000 126.000000
f 228 227 226
v -104.000000 6.366000 127.800000
v -97.500000 6.110000 128.000000
v -104.000000 6.370000 128.000000
f 231 230 229
v -96.000000 6.010000 126.000000
v -104.000000 6.366000 127.800000
v -96.571429 5.912857 120.000000
f 234 233 232
v -97.500000 6.110000 128.000000
v -104.000000 6.366000 127.800000
v -96.000000 6.010000 126.000000
f 237 236 235
v -99.000000 6.210000 130.000000
v -99.872727 6.364909 136.000000
v -104.000000 6.530000 136.000000
f 240 239 238
v -99.000000 6.210000 130.000000
v -104.000000 6.370000 128.000000
v -97.500000 6.110000 128.000000
f 243 242 241
v -104.000000 6.370000 128.000000
v -99.000000 6.210000 130.000000
v -104.000000 6.530000 136.000000
f 246 245 244
v -100.000000 6.387500 136.875000
v -104.000000 6.560500 137.525000
v -104.000000 6.530000 136.000000
f 249 248 247
v -104.000000 6.530000 136.000000
v -99.872727 6.364909 136.000000
v -100.000000 6.387500 136.875000
f 252 251 250
v -104.000000 6.366000 127.800000
v -104.000000 6.370000 128.000000
v -104.190476 6.377619 128.000000
f 255 254 253
v -108.000000 6.610000 132.000000
v -104.190476 6.377619 128.000000
v -104.000000 6.370000 128.000000
f 258 257 256
v -108.000000 6.610000 132.000000
v -112.000000 6.850000 136.000000
v -112.000000 6.824167 134.708333
f 261 260 259
v -108.000000 6.610000 132.000000
v -104.000000 6.370000 128.000000
v -104.000000 6.530000 136.000000
f 264 263 262
v -112.000000 6.850000 136.000000
v -108.000000 6.610000 132.000000
v -104.000000 6.530000 136.000000
f 267 266 265
v -104.000000 6.560500 137.525000
v -112.000000 6.850000 136.000000
v -104.000000 6.530000 136.000000
f 270 269 268
v -112.000000 6.850000 136.000000
v -104.000000 6.560500 137.525000
v -112.000000 6.906500 138.825000
f 273 272 271
v -112.000000 6.824167 134.708333
v -112.000000 6.850000 136.000000
v -113.907692 6.926308 136.000000
f 276 275 274
v -113.907692 6.926308 136.000000
v -112.000000 6.850000 136.000000
v -112.000000 6.906500 138.825000
f 279 278 277
v -112.000000 6.906500 138.825000
v -120.000000 7.252500 140.125000
v -113.907692 6.926308 136.000000
f 282 281 280
