# CITY-04 generated projection: rio_water
v 20.000000 -1.360000 -24.000000
v 16.000000 -1.288000 -24.000000
v 16.000000 -1.288000 -25.200000
f 3 2 1
v 20.000000 -1.360000 -16.000000
v 16.000000 -1.288000 -16.000000
v 16.000000 -1.288000 -24.000000
f 6 5 4
v 16.000000 -1.288000 -24.000000
v 20.000000 -1.360000 -24.000000
v 20.000000 -1.360000 -16.000000
f 9 8 7
v 16.000000 -1.288000 -8.400000
v 16.000000 -1.288000 -16.000000
v 20.000000 -1.360000 -16.000000
f 12 11 10
v 20.000000 -1.360000 -16.000000
v 20.000000 -1.360000 -8.000000
v 16.000000 -1.288000 -8.400000
f 15 14 13
v 16.000000 -1.288000 -25.200000
v 16.000000 -1.288000 -24.000000
v 8.000000 -1.144000 -24.000000
f 18 17 16
v 8.000000 -1.144000 -24.000000
v 8.000000 -1.144000 -27.600000
v 16.000000 -1.288000 -25.200000
f 21 20 19
v 16.000000 -1.288000 -24.000000
v 16.000000 -1.288000 -16.000000
v 8.000000 -1.144000 -16.000000
f 24 23 22
v 8.000000 -1.144000 -16.000000
v 8.000000 -1.144000 -24.000000
v 16.000000 -1.288000 -24.000000
f 27 26 25
v 8.000000 -1.144000 -9.200000
v 8.000000 -1.144000 -16.000000
v 16.000000 -1.288000 -16.000000
f 30 29 28
v 16.000000 -1.288000 -16.000000
v 16.000000 -1.288000 -8.400000
v 8.000000 -1.144000 -9.200000
f 33 32 31
v 8.000000 -1.144000 -27.600000
v 8.000000 -1.144000 -24.000000
v -0.000000 -1.000000 -24.000000
f 36 35 34
v -0.000000 -1.000000 -24.000000
v -0.000000 -1.000000 -30.000000
v 8.000000 -1.144000 -27.600000
f 39 38 37
v 8.000000 -1.144000 -24.000000
v 8.000000 -1.144000 -16.000000
v -0.000000 -1.000000 -16.000000
f 42 41 40
v -0.000000 -1.000000 -16.000000
v -0.000000 -1.000000 -24.000000
v 8.000000 -1.144000 -24.000000
f 45 44 43
v -0.000000 -1.000000 -10.000000
v -0.000000 -1.000000 -16.000000
v 8.000000 -1.144000 -16.000000
f 48 47 46
v 8.000000 -1.144000 -16.000000
v 8.000000 -1.144000 -9.200000
v -0.000000 -1.000000 -10.000000
f 51 50 49
v -3.076923 -0.944615 -32.000000
v -8.000000 -0.856000 -32.000000
v -8.000000 -0.856000 -35.200000
f 54 53 52
v -0.000000 -1.000000 -30.000000
v -0.000000 -1.000000 -24.000000
v -8.000000 -0.856000 -24.000000
f 57 56 55
v -8.000000 -0.856000 -24.000000
v -8.000000 -0.856000 -32.000000
v -3.076923 -0.944615 -32.000000
f 60 59 58
v -3.076923 -0.944615 -32.000000
v -0.000000 -1.000000 -30.000000
v -8.000000 -0.856000 -24.000000
f 63 62 61
v -0.000000 -1.000000 -24.000000
v -0.000000 -1.000000 -16.000000
v -8.000000 -0.856000 -16.000000
f 66 65 64
v -8.000000 -0.856000 -16.000000
v -8.000000 -0.856000 -24.000000
v -0.000000 -1.000000 -24.000000
f 69 68 67
v -8.000000 -0.856000 -15.600000
v -8.000000 -0.856000 -16.000000
v -0.000000 -1.000000 -16.000000
f 72 71 70
v -0.000000 -1.000000 -16.000000
v -0.000000 -1.000000 -10.000000
v -8.000000 -0.856000 -15.600000
f 75 74 73
v -15.384615 -0.723077 -40.000000
v -16.000000 -0.712000 -40.000000
v -16.000000 -0.712000 -40.400000
f 78 77 76
v -8.000000 -0.856000 -35.200000
v -8.000000 -0.856000 -32.000000
v -16.000000 -0.712000 -32.000000
f 81 80 79
v -16.000000 -0.712000 -32.000000
v -16.000000 -0.712000 -40.000000
v -15.384615 -0.723077 -40.000000
f 84 83 82
v -15.384615 -0.723077 -40.000000
v -8.000000 -0.856000 -35.200000
v -16.000000 -0.712000 -32.000000
f 87 86 85
v -8.000000 -0.856000 -32.000000
v -8.000000 -0.856000 -24.000000
v -16.000000 -0.712000 -24.000000
f 90 89 88
v -16.000000 -0.712000 -24.000000
v -16.000000 -0.712000 -32.000000
v -8.000000 -0.856000 -32.000000
f 93 92 91
v -16.000000 -0.712000 -21.200000
v -16.000000 -0.712000 -24.000000
v -8.000000 -0.856000 -24.000000
f 96 95 94
v -8.000000 -0.856000 -24.000000
v -8.000000 -0.856000 -16.000000
v -8.571429 -0.845714 -16.000000
f 99 98 97
v -8.571429 -0.845714 -16.000000
v -16.000000 -0.712000 -21.200000
v -8.000000 -0.856000 -24.000000
f 102 101 100
v -8.571429 -0.845714 -16.000000
v -8.000000 -0.856000 -16.000000
v -8.000000 -0.856000 -15.600000
f 105 104 103
v -20.000000 -0.640000 -43.000000
v -16.000000 -0.712000 -40.400000
v -16.000000 -0.712000 -40.000000
f 108 107 106
v -24.000000 -0.568000 -40.000000
v -24.000000 -0.568000 -46.000000
v -20.000000 -0.640000 -43.000000
f 111 110 109
v -20.000000 -0.640000 -43.000000
v -16.000000 -0.712000 -40.000000
v -24.000000 -0.568000 -40.000000
f 114 113 112
v -16.000000 -0.712000 -40.000000
v -16.000000 -0.712000 -32.000000
v -24.000000 -0.568000 -32.000000
f 117 116 115
v -24.000000 -0.568000 -32.000000
v -24.000000 -0.568000 -40.000000
v -16.000000 -0.712000 -40.000000
f 120 119 118
v -24.000000 -0.568000 -27.600000
v -24.000000 -0.568000 -32.000000
v -16.000000 -0.712000 -32.000000
f 123 122 121
v -16.000000 -0.712000 -32.000000
v -16.000000 -0.712000 -24.000000
v -20.000000 -0.640000 -24.000000
f 126 125 124
v -20.000000 -0.640000 -24.000000
v -24.000000 -0.568000 -27.600000
v -16.000000 -0.712000 -32.000000
f 129 128 127
v -20.000000 -0.640000 -24.000000
v -16.000000 -0.712000 -24.000000
v -16.000000 -0.712000 -21.200000
f 132 131 130
v -26.666667 -0.520000 -48.000000
v -32.000000 -0.424000 -48.000000
v -32.000000 -0.424000 -52.000000
f 135 134 133
v -24.000000 -0.568000 -46.000000
v -24.000000 -0.568000 -40.000000
v -32.000000 -0.424000 -40.000000
f 138 137 136
v -32.000000 -0.424000 -40.000000
v -32.000000 -0.424000 -48.000000
v -26.666667 -0.520000 -48.000000
f 141 140 139
v -26.666667 -0.520000 -48.000000
v -24.000000 -0.568000 -46.000000
v -32.000000 -0.424000 -40.000000
f 144 143 142
v -32.000000 -0.424000 -34.800000
v -32.000000 -0.424000 -40.000000
v -24.000000 -0.568000 -40.000000
f 147 146 145
v -24.000000 -0.568000 -40.000000
v -24.000000 -0.568000 -32.000000
v -28.888889 -0.480000 -32.000000
f 150 149 148
v -28.888889 -0.480000 -32.000000
v -32.000000 -0.424000 -34.800000
v -24.000000 -0.568000 -40.000000
f 153 152 151
v -28.888889 -0.480000 -32.000000
v -24.000000 -0.568000 -32.000000
v -24.000000 -0.568000 -27.600000
f 156 155 154
v -37.333333 -0.328000 -56.000000
v -40.000000 -0.280000 -56.000000
v -40.000000 -0.280000 -58.000000
f 159 158 157
v -32.000000 -0.424000 -52.000000
v -32.000000 -0.424000 -48.000000
v -40.000000 -0.280000 -48.000000
f 162 161 160
v -40.000000 -0.280000 -48.000000
v -40.000000 -0.280000 -56.000000
v -37.333333 -0.328000 -56.000000
f 165 164 163
v -37.333333 -0.328000 -56.000000
v -32.000000 -0.424000 -52.000000
v -40.000000 -0.280000 -48.000000
f 168 167 166
v -40.000000 -0.280000 -42.000000
v -40.000000 -0.280000 -48.000000
v -32.000000 -0.424000 -48.000000
f 171 170 169
v -32.000000 -0.424000 -48.000000
v -32.000000 -0.424000 -40.000000
v -37.777778 -0.320000 -40.000000
f 174 173 172
v -37.777778 -0.320000 -40.000000
v -40.000000 -0.280000 -42.000000
v -32.000000 -0.424000 -48.000000
f 177 176 175
v -37.777778 -0.320000 -40.000000
v -32.000000 -0.424000 -40.000000
v -32.000000 -0.424000 -34.800000
f 180 179 178
v -40.000000 -0.280000 -58.000000
v -40.000000 -0.280000 -56.000000
v -48.000000 -0.136000 -56.000000
f 183 182 181
v -48.000000 -0.136000 -56.000000
v -48.000000 -0.136000 -59.600000
v -40.000000 -0.280000 -58.000000
f 186 185 184
v -40.000000 -0.280000 -56.000000
v -40.000000 -0.280000 -48.000000
v -48.000000 -0.136000 -48.000000
f 189 188 187
v -48.000000 -0.136000 -48.000000
v -48.000000 -0.136000 -56.000000
v -40.000000 -0.280000 -56.000000
f 192 191 190
v -48.000000 -0.136000 -43.600000
v -48.000000 -0.136000 -48.000000
v -40.000000 -0.280000 -48.000000
f 195 194 193
v -40.000000 -0.280000 -48.000000
v -40.000000 -0.280000 -42.000000
v -48.000000 -0.136000 -43.600000
f 198 197 196
v -48.000000 -0.136000 -59.600000
v -48.000000 -0.136000 -56.000000
v -56.000000 0.008000 -56.000000
f 201 200 199
v -56.000000 0.008000 -56.000000
v -56.000000 0.008000 -61.200000
v -48.000000 -0.136000 -59.600000
f 204 203 202
v -48.000000 -0.136000 -56.000000
v -48.000000 -0.136000 -48.000000
v -56.000000 0.008000 -48.000000
f 207 206 205
v -56.000000 0.008000 -48.000000
v -56.000000 0.008000 -56.000000
v -48.000000 -0.136000 -56.000000
f 210 209 208
v -56.000000 0.008000 -45.200000
v -56.000000 0.008000 -48.000000
v -48.000000 -0.136000 -48.000000
f 213 212 211
v -48.000000 -0.136000 -48.000000
v -48.000000 -0.136000 -43.600000
v -56.000000 0.008000 -45.200000
f 216 215 214
v -60.000000 0.080000 -62.000000
v -56.000000 0.008000 -61.200000
v -56.000000 0.008000 -56.000000
f 219 218 217
v -60.000000 0.080000 -62.000000
v -64.000000 0.152000 -56.000000
v -64.000000 0.152000 -61.885714
f 222 221 220
v -64.000000 0.152000 -56.000000
v -60.000000 0.080000 -62.000000
v -56.000000 0.008000 -56.000000
f 225 224 223
v -56.000000 0.008000 -56.000000
v -56.000000 0.008000 -48.000000
v -64.000000 0.152000 -48.000000
f 228 227 226
v -64.000000 0.152000 -48.000000
v -64.000000 0.152000 -56.000000
v -56.000000 0.008000 -56.000000
f 231 230 229
v -60.000000 0.080000 -46.000000
v -64.000000 0.152000 -45.885714
v -64.000000 0.152000 -48.000000
f 234 233 232
v -60.000000 0.080000 -46.000000
v -56.000000 0.008000 -48.000000
v -56.000000 0.008000 -45.200000
f 237 236 235
v -56.000000 0.008000 -48.000000
v -60.000000 0.080000 -46.000000
v -64.000000 0.152000 -48.000000
f 240 239 238
v -72.000000 0.296000 -61.657143
v -64.000000 0.152000 -56.000000
v -72.000000 0.296000 -56.000000
f 243 242 241
v -64.000000 0.152000 -56.000000
v -72.000000 0.296000 -61.657143
v -64.000000 0.152000 -61.885714
f 246 245 244
v -64.000000 0.152000 -56.000000
v -64.000000 0.152000 -48.000000
v -72.000000 0.296000 -48.000000
f 249 248 247
v -72.000000 0.296000 -48.000000
v -72.000000 0.296000 -56.000000
v -64.000000 0.152000 -56.000000
f 252 251 250
v -64.000000 0.152000 -45.885714
v -72.000000 0.296000 -48.000000
v -64.000000 0.152000 -48.000000
f 255 254 253
v -72.000000 0.296000 -48.000000
v -64.000000 0.152000 -45.885714
v -72.000000 0.296000 -45.657143
f 258 257 256
v -80.000000 0.440000 -61.428571
v -72.000000 0.296000 -56.000000
v -80.000000 0.440000 -56.000000
f 261 260 259
v -72.000000 0.296000 -56.000000
v -80.000000 0.440000 -61.428571
v -72.000000 0.296000 -61.657143
f 264 263 262
v -72.000000 0.296000 -56.000000
v -72.000000 0.296000 -48.000000
v -80.000000 0.440000 -48.000000
f 267 266 265
v -80.000000 0.440000 -48.000000
v -80.000000 0.440000 -56.000000
v -72.000000 0.296000 -56.000000
f 270 269 268
v -72.000000 0.296000 -45.657143
v -80.000000 0.440000 -48.000000
v -72.000000 0.296000 -48.000000
f 273 272 271
v -80.000000 0.440000 -48.000000
v -72.000000 0.296000 -45.657143
v -80.000000 0.440000 -45.428571
f 276 275 274
v -88.000000 0.584000 -61.200000
v -80.000000 0.440000 -56.000000
v -88.000000 0.584000 -56.000000
f 279 278 277
v -80.000000 0.440000 -56.000000
v -88.000000 0.584000 -61.200000
v -80.000000 0.440000 -61.428571
f 282 281 280
v -80.000000 0.440000 -56.000000
v -80.000000 0.440000 -48.000000
v -88.000000 0.584000 -48.000000
f 285 284 283
v -88.000000 0.584000 -48.000000
v -88.000000 0.584000 -56.000000
v -80.000000 0.440000 -56.000000
f 288 287 286
v -80.000000 0.440000 -45.428571
v -88.000000 0.584000 -48.000000
v -80.000000 0.440000 -48.000000
f 291 290 289
v -88.000000 0.584000 -48.000000
v -80.000000 0.440000 -45.428571
v -88.000000 0.584000 -45.200000
f 294 293 292
v -95.000000 0.710000 -61.000000
v -88.000000 0.584000 -61.200000
v -88.000000 0.584000 -56.000000
f 297 296 295
v -95.000000 0.710000 -61.000000
v -96.000000 0.728000 -56.000000
v -96.000000 0.728000 -60.911111
f 300 299 298
v -96.000000 0.728000 -56.000000
v -95.000000 0.710000 -61.000000
v -88.000000 0.584000 -56.000000
f 303 302 301
v -88.000000 0.584000 -56.000000
v -88.000000 0.584000 -48.000000
v -96.000000 0.728000 -48.000000
f 306 305 304
v -96.000000 0.728000 -48.000000
v -96.000000 0.728000 -56.000000
v -88.000000 0.584000 -56.000000
f 309 308 307
v -95.000000 0.710000 -45.000000
v -96.000000 0.728000 -44.933333
v -96.000000 0.728000 -48.000000
f 312 311 310
v -95.000000 0.710000 -45.000000
v -88.000000 0.584000 -48.000000
v -88.000000 0.584000 -45.200000
f 315 314 313
v -88.000000 0.584000 -48.000000
v -95.000000 0.710000 -45.000000
v -96.000000 0.728000 -48.000000
f 318 317 316
v -104.000000 0.872000 -60.200000
v -96.000000 0.728000 -56.000000
v -104.000000 0.872000 -56.000000
f 321 320 319
v -96.000000 0.728000 -56.000000
v -104.000000 0.872000 -60.200000
v -96.000000 0.728000 -60.911111
f 324 323 322
v -96.000000 0.728000 -56.000000
v -96.000000 0.728000 -48.000000
v -104.000000 0.872000 -48.000000
f 327 326 325
v -104.000000 0.872000 -48.000000
v -104.000000 0.872000 -56.000000
v -96.000000 0.728000 -56.000000
f 330 329 328
v -96.000000 0.728000 -44.933333
v -104.000000 0.872000 -48.000000
v -96.000000 0.728000 -48.000000
f 333 332 331
v -104.000000 0.872000 -48.000000
v -96.000000 0.728000 -44.933333
v -104.000000 0.872000 -44.400000
f 336 335 334
v -112.000000 1.016000 -59.488889
v -104.000000 0.872000 -56.000000
v -112.000000 1.016000 -56.000000
f 339 338 337
v -104.000000 0.872000 -56.000000
v -112.000000 1.016000 -59.488889
v -104.000000 0.872000 -60.200000
f 342 341 340
v -104.000000 0.872000 -56.000000
v -104.000000 0.872000 -48.000000
v -112.000000 1.016000 -48.000000
f 345 344 343
v -112.000000 1.016000 -48.000000
v -112.000000 1.016000 -56.000000
v -104.000000 0.872000 -56.000000
f 348 347 346
v -104.000000 0.872000 -44.400000
v -112.000000 1.016000 -48.000000
v -104.000000 0.872000 -48.000000
f 351 350 349
v -112.000000 1.016000 -48.000000
v -104.000000 0.872000 -44.400000
v -112.000000 1.016000 -43.866667
f 354 353 352
v -120.000000 1.160000 -58.777778
v -112.000000 1.016000 -56.000000
v -120.000000 1.160000 -56.000000
f 357 356 355
v -112.000000 1.016000 -56.000000
v -120.000000 1.160000 -58.777778
v -112.000000 1.016000 -59.488889
f 360 359 358
v -112.000000 1.016000 -56.000000
v -112.000000 1.016000 -48.000000
v -120.000000 1.160000 -48.000000
f 363 362 361
v -120.000000 1.160000 -48.000000
v -120.000000 1.160000 -56.000000
v -112.000000 1.016000 -56.000000
f 366 365 364
v -112.000000 1.016000 -43.866667
v -120.000000 1.160000 -48.000000
v -112.000000 1.016000 -48.000000
f 369 368 367
v -120.000000 1.160000 -48.000000
v -112.000000 1.016000 -43.866667
v -120.000000 1.160000 -43.333333
f 372 371 370
v -128.000000 1.304000 -58.066667
v -120.000000 1.160000 -56.000000
v -128.000000 1.304000 -56.000000
f 375 374 373
v -120.000000 1.160000 -56.000000
v -128.000000 1.304000 -58.066667
v -120.000000 1.160000 -58.777778
f 378 377 376
v -120.000000 1.160000 -56.000000
v -120.000000 1.160000 -48.000000
v -128.000000 1.304000 -48.000000
f 381 380 379
v -128.000000 1.304000 -48.000000
v -128.000000 1.304000 -56.000000
v -120.000000 1.160000 -56.000000
f 384 383 382
v -120.000000 1.160000 -43.333333
v -128.000000 1.304000 -48.000000
v -120.000000 1.160000 -48.000000
f 387 386 385
v -128.000000 1.304000 -48.000000
v -120.000000 1.160000 -43.333333
v -128.000000 1.304000 -42.800000
f 390 389 388
v -136.000000 1.448000 -57.355556
v -128.000000 1.304000 -56.000000
v -136.000000 1.448000 -56.000000
f 393 392 391
v -128.000000 1.304000 -56.000000
v -136.000000 1.448000 -57.355556
v -128.000000 1.304000 -58.066667
f 396 395 394
v -128.000000 1.304000 -56.000000
v -128.000000 1.304000 -48.000000
v -136.000000 1.448000 -48.000000
f 399 398 397
v -136.000000 1.448000 -48.000000
v -136.000000 1.448000 -56.000000
v -128.000000 1.304000 -56.000000
f 402 401 400
v -128.000000 1.304000 -42.800000
v -136.000000 1.448000 -48.000000
v -128.000000 1.304000 -48.000000
f 405 404 403
v -136.000000 1.448000 -48.000000
v -128.000000 1.304000 -42.800000
v -136.000000 1.448000 -42.266667
f 408 407 406
v -140.000000 1.520000 -57.000000
v -136.000000 1.448000 -57.355556
v -136.000000 1.448000 -56.000000
f 411 410 409
v -140.000000 1.520000 -57.000000
v -144.000000 1.592000 -56.000000
v -144.000000 1.592000 -56.555556
f 414 413 412
v -144.000000 1.592000 -56.000000
v -140.000000 1.520000 -57.000000
v -136.000000 1.448000 -56.000000
f 417 416 415
v -136.000000 1.448000 -56.000000
v -136.000000 1.448000 -48.000000
v -144.000000 1.592000 -48.000000
f 420 419 418
v -144.000000 1.592000 -48.000000
v -144.000000 1.592000 -56.000000
v -136.000000 1.448000 -56.000000
f 423 422 421
v -140.000000 1.520000 -42.000000
v -144.000000 1.592000 -41.822222
v -144.000000 1.592000 -48.000000
f 426 425 424
v -140.000000 1.520000 -42.000000
v -136.000000 1.448000 -48.000000
v -136.000000 1.448000 -42.266667
f 429 428 427
v -136.000000 1.448000 -48.000000
v -140.000000 1.520000 -42.000000
v -144.000000 1.592000 -48.000000
f 432 431 430
v -144.000000 1.592000 -56.555556
v -144.000000 1.592000 -56.000000
v -149.000000 1.682000 -56.000000
f 435 434 433
v -149.000000 1.682000 -56.000000
v -144.000000 1.592000 -56.000000
v -144.000000 1.592000 -48.000000
f 438 437 436
v -149.000000 1.682000 -56.000000
v -152.000000 1.736000 -48.000000
v -152.000000 1.736000 -55.666667
f 441 440 439
v -152.000000 1.736000 -48.000000
v -149.000000 1.682000 -56.000000
v -144.000000 1.592000 -48.000000
f 444 443 442
v -144.000000 1.592000 -41.822222
v -152.000000 1.736000 -48.000000
v -144.000000 1.592000 -48.000000
f 447 446 445
v -152.000000 1.736000 -48.000000
v -144.000000 1.592000 -41.822222
v -152.000000 1.736000 -41.466667
f 450 449 448
v -160.000000 1.880000 -54.777778
v -152.000000 1.736000 -48.000000
v -160.000000 1.880000 -48.000000
f 453 452 451
v -152.000000 1.736000 -48.000000
v -160.000000 1.880000 -54.777778
v -152.000000 1.736000 -55.666667
f 456 455 454
v -152.000000 1.736000 -41.466667
v -160.000000 1.880000 -48.000000
v -152.000000 1.736000 -48.000000
f 459 458 457
v -160.000000 1.880000 -48.000000
v -152.000000 1.736000 -41.466667
v -160.000000 1.880000 -41.111111
f 462 461 460
v -168.000000 2.024000 -53.888889
v -160.000000 1.880000 -48.000000
v -168.000000 2.024000 -48.000000
f 465 464 463
v -160.000000 1.880000 -48.000000
v -168.000000 2.024000 -53.888889
v -160.000000 1.880000 -54.777778
f 468 467 466
v -160.000000 1.880000 -41.111111
v -168.000000 2.024000 -48.000000
v -160.000000 1.880000 -48.000000
f 471 470 469
v -168.000000 2.024000 -48.000000
v -160.000000 1.880000 -41.111111
v -168.000000 2.024000 -40.755556
f 474 473 472
v -176.000000 2.168000 -53.000000
v -168.000000 2.024000 -48.000000
v -176.000000 2.168000 -48.000000
f 477 476 475
v -168.000000 2.024000 -48.000000
v -176.000000 2.168000 -53.000000
v -168.000000 2.024000 -53.888889
f 480 479 478
v -168.000000 2.024000 -40.755556
v -176.000000 2.168000 -48.000000
v -168.000000 2.024000 -48.000000
f 483 482 481
v -176.000000 2.168000 -48.000000
v -168.000000 2.024000 -40.755556
v -176.000000 2.168000 -40.400000
f 486 485 484
v -184.000000 2.312000 -52.111111
v -176.000000 2.168000 -48.000000
v -184.000000 2.312000 -48.000000
f 489 488 487
v -176.000000 2.168000 -48.000000
v -184.000000 2.312000 -52.111111
v -176.000000 2.168000 -53.000000
f 492 491 490
v -176.000000 2.168000 -40.400000
v -184.000000 2.312000 -48.000000
v -176.000000 2.168000 -48.000000
f 495 494 493
v -184.000000 2.312000 -48.000000
v -176.000000 2.168000 -40.400000
v -184.000000 2.312000 -40.044444
f 498 497 496
v -185.000000 2.330000 -52.000000
v -184.000000 2.312000 -52.111111
v -184.000000 2.312000 -48.000000
f 501 500 499
v -185.000000 2.330000 -52.000000
v -192.000000 2.456000 -48.000000
v -192.000000 2.456000 -50.600000
f 504 503 502
v -192.000000 2.456000 -48.000000
v -185.000000 2.330000 -52.000000
v -184.000000 2.312000 -48.000000
f 507 506 505
v -185.000000 2.330000 -40.000000
v -192.000000 2.456000 -40.000000
v -192.000000 2.456000 -48.000000
f 510 509 508
v -185.000000 2.330000 -40.000000
v -184.000000 2.312000 -48.000000
v -184.000000 2.312000 -40.044444
f 513 512 511
v -184.000000 2.312000 -48.000000
v -185.000000 2.330000 -40.000000
v -192.000000 2.456000 -48.000000
f 516 515 514
v -192.000000 2.456000 -39.300000
v -192.000000 2.456000 -40.000000
v -185.000000 2.330000 -40.000000
f 519 518 517
v -200.000000 2.600000 -49.000000
v -192.000000 2.456000 -48.000000
v -200.000000 2.600000 -48.000000
f 522 521 520
v -192.000000 2.456000 -48.000000
v -200.000000 2.600000 -49.000000
v -192.000000 2.456000 -50.600000
f 525 524 523
v -192.000000 2.456000 -48.000000
v -192.000000 2.456000 -40.000000
v -200.000000 2.600000 -40.000000
f 528 527 526
v -200.000000 2.600000 -40.000000
v -200.000000 2.600000 -48.000000
v -192.000000 2.456000 -48.000000
f 531 530 529
v -192.000000 2.456000 -39.300000
v -200.000000 2.600000 -40.000000
v -192.000000 2.456000 -40.000000
f 534 533 532
v -200.000000 2.600000 -40.000000
v -192.000000 2.456000 -39.300000
v -200.000000 2.600000 -38.500000
f 537 536 535
v -200.000000 2.600000 -49.000000
v -200.000000 2.600000 -48.000000
v -205.000000 2.690000 -48.000000
f 540 539 538
v -205.000000 2.690000 -48.000000
v -200.000000 2.600000 -48.000000
v -200.000000 2.600000 -40.000000
f 543 542 541
v -200.000000 2.600000 -40.000000
v -205.000000 2.690000 -40.000000
v -205.000000 2.690000 -48.000000
f 546 545 544
v -200.000000 2.600000 -38.500000
v -205.000000 2.690000 -40.000000
v -200.000000 2.600000 -40.000000
f 549 548 547
v -205.000000 2.690000 -40.000000
v -200.000000 2.600000 -38.500000
v -205.000000 2.690000 -38.000000
f 552 551 550
