# CITY-04 generated projection: x1_crossing
v -39.000000 2.596994 -63.000000
v -40.000000 2.861184 -59.000000
v -40.000000 2.633775 -63.333333
f 3 2 1
v -45.000000 2.777994 -65.000000
v -42.000000 2.699380 -64.000000
v -45.250000 2.847894 -64.000000
f 6 5 4
v -40.000000 2.861184 -59.000000
v -42.000000 2.699380 -64.000000
v -40.000000 2.633775 -63.333333
f 9 8 7
v -47.250000 3.330579 -56.000000
v -40.000000 2.861184 -59.000000
v -40.750000 3.036010 -56.000000
f 12 11 10
v -40.000000 2.861184 -59.000000
v -47.250000 3.330579 -56.000000
v -45.250000 2.847894 -64.000000
f 15 14 13
v -40.000000 2.861184 -59.000000
v -45.250000 2.847894 -64.000000
v -42.000000 2.699380 -64.000000
f 18 17 16
v -48.000000 3.470045 -53.000000
v -40.750000 3.036010 -56.000000
v -42.750000 3.385373 -48.000000
f 21 20 19
v -42.750000 3.385373 -48.000000
v -48.000000 3.604451 -48.000000
v -48.000000 3.470045 -53.000000
f 24 23 22
v -40.750000 3.036010 -56.000000
v -48.000000 3.470045 -53.000000
v -47.250000 3.330579 -56.000000
f 27 26 25
v -44.750000 3.550579 -40.000000
v -48.000000 3.677317 -40.000000
v -48.000000 3.604451 -48.000000
f 30 29 28
v -48.000000 3.604451 -48.000000
v -42.750000 3.385373 -48.000000
v -44.750000 3.550579 -40.000000
f 33 32 31
v -46.750000 3.547894 -32.000000
v -48.000000 3.593757 -32.000000
v -48.000000 3.677317 -40.000000
f 36 35 34
v -48.000000 3.677317 -40.000000
v -44.750000 3.550579 -40.000000
v -46.750000 3.547894 -32.000000
f 39 38 37
v -46.750000 3.547894 -32.000000
v -48.000000 3.581070 -31.333333
v -48.000000 3.593757 -32.000000
f 42 41 40
v -48.000000 3.581070 -31.333333
v -46.750000 3.547894 -32.000000
v -47.000000 3.537994 -31.000000
f 45 44 43
v -48.000000 3.470045 -53.000000
v -48.000000 3.604451 -48.000000
v -49.250000 3.645373 -48.000000
f 48 47 46
v -49.250000 3.645373 -48.000000
v -48.000000 3.604451 -48.000000
v -48.000000 3.677317 -40.000000
f 51 50 49
v -48.000000 3.677317 -40.000000
v -51.250000 3.776010 -40.000000
v -49.250000 3.645373 -48.000000
f 54 53 52
v -50.000000 3.659380 -32.000000
v -48.000000 3.677317 -40.000000
v -48.000000 3.593757 -32.000000
f 57 56 55
v -51.250000 3.776010 -40.000000
v -50.000000 3.659380 -32.000000
v -53.000000 3.756994 -33.000000
f 60 59 58
v -48.000000 3.677317 -40.000000
v -50.000000 3.659380 -32.000000
v -51.250000 3.776010 -40.000000
f 63 62 61
v -50.000000 3.659380 -32.000000
v -48.000000 3.593757 -32.000000
v -48.000000 3.581070 -31.333333
f 66 65 64
