# CITY-04 generated projection: x5_crossing
v -90.500000 5.926001 107.800000
v -92.957143 6.108286 112.000000
v -93.500000 6.054001 108.200000
f 3 2 1
v -92.957143 6.108286 112.000000
v -90.500000 5.926001 107.800000
v -89.900000 5.986001 112.000000
f 6 5 4
v -89.900000 5.986001 112.000000
v -91.814286 6.222572 120.000000
v -92.957143 6.108286 112.000000
f 9 8 7
v -91.814286 6.222572 120.000000
v -89.900000 5.986001 112.000000
v -88.757143 6.100286 120.000000
f 12 11 10
v -88.757143 6.100286 120.000000
v -91.500000 6.254000 122.200000
v -91.814286 6.222572 120.000000
f 15 14 13
v -91.500000 6.254000 122.200000
v -88.757143 6.100286 120.000000
v -88.500000 6.126000 121.800000
f 18 17 16
